<svg xmlns="http://www.w3.org/2000/svg" xmlns:xlink="http://www.w3.org/1999/xlink" width="500" zoomAndPan="magnify" viewBox="0 0 375 374.999991" height="500" preserveAspectRatio="xMidYMid meet" version="1.2"><defs><clipPath id="dbdd51a730"><path d="M 112.5 88.214844 L 262.5 88.214844 L 262.5 225 L 112.5 225 Z M 112.5 88.214844 "/></clipPath></defs><g id="99c6fee233"><g clip-rule="nonzero" clip-path="url(#dbdd51a730)"><path style=" stroke:none;fill-rule:nonzero;fill:#303030;fill-opacity:1;" d="M 262.347656 162.375 C 262.40625 181.5 257.351562 196.925781 247.066406 210.613281 C 243.527344 215.320312 239.414062 219.488281 234.789062 223.144531 C 232.542969 224.917969 231.222656 225.085938 229.050781 222.726562 C 223.140625 216.3125 215.972656 211.863281 207.472656 209.804688 C 204.320312 209.042969 201.035156 208.582031 197.796875 208.484375 C 191.320312 208.28125 184.835938 208.335938 178.355469 208.441406 C 165.855469 208.644531 155.28125 213.316406 146.667969 222.398438 C 146.410156 222.667969 146.15625 222.945312 145.894531 223.214844 C 144.320312 224.808594 143.015625 225.09375 141.332031 223.664062 C 138.195312 221 134.988281 218.34375 132.238281 215.296875 C 123.519531 205.660156 117.707031 194.445312 114.789062 181.75 C 112.945312 173.738281 112.527344 165.644531 113.167969 157.464844 C 114.242188 143.792969 118.753906 131.332031 126.578125 120.121094 C 137.738281 104.132812 152.984375 94.167969 172.042969 90.15625 C 180.164062 88.449219 188.386719 88.207031 196.65625 89.179688 C 211.707031 90.949219 224.996094 96.703125 236.445312 106.621094 C 248.90625 117.410156 256.859375 130.933594 260.550781 146.964844 C 261.871094 152.6875 262.46875 158.503906 262.347656 162.375 Z M 191.007812 128.117188 C 194.5625 128.117188 197.941406 128.046875 201.3125 128.144531 C 203.367188 128.207031 205.457031 128.324219 207.449219 128.773438 C 219.871094 131.574219 228.382812 139.039062 233.066406 150.8125 C 233.632812 152.234375 234.328125 152.578125 235.644531 152.644531 C 239.402344 152.839844 242.871094 155.890625 243.066406 159.625 C 243.316406 164.445312 243.242188 169.285156 243.113281 174.113281 C 243.023438 177.570312 240.992188 179.851562 237.859375 181.046875 C 236.539062 181.550781 235.058594 181.621094 233.628906 181.890625 C 230.898438 192.363281 224.140625 199.542969 214.367188 204.375 C 221.257812 206.652344 227.25 210.207031 232.554688 215.433594 C 235.175781 212.488281 237.914062 209.773438 240.238281 206.742188 C 248.464844 196.003906 253.328125 183.921875 254.421875 170.363281 C 254.949219 163.785156 254.746094 157.242188 253.414062 150.785156 C 250.289062 135.613281 243.066406 122.757812 231.332031 112.535156 C 220.152344 102.796875 207.023438 97.722656 192.355469 96.621094 C 185.949219 96.140625 179.546875 96.5625 173.21875 97.9375 C 158.378906 101.152344 145.964844 108.480469 136.351562 120.171875 C 123.757812 135.488281 119.140625 153.292969 121.164062 172.867188 C 121.929688 180.285156 124.054688 187.386719 127.300781 194.121094 C 131.160156 202.125 136.238281 209.234375 142.933594 215.175781 C 148.039062 210.191406 153.992188 206.671875 160.84375 204.371094 C 150.996094 199.527344 144.328125 192.257812 141.472656 181.707031 C 141.179688 181.6875 140.902344 181.667969 140.625 181.65625 C 134.863281 181.351562 131.84375 176.8125 132.046875 172.628906 C 132.21875 169.019531 132.242188 165.390625 132.042969 161.785156 C 131.769531 156.820312 135.699219 152.542969 140.378906 152.589844 C 141.277344 152.597656 141.667969 152.15625 141.9375 151.367188 C 143.535156 146.699219 146.066406 142.582031 149.453125 139.007812 C 155.308594 132.835938 162.453125 129.15625 170.945312 128.414062 C 174.90625 128.066406 178.914062 128.199219 182.898438 128.121094 C 183.390625 128.109375 183.882812 128.117188 184.4375 128.117188 C 184.4375 125.78125 184.398438 123.671875 184.453125 121.566406 C 184.480469 120.507812 184.25 119.835938 183.246094 119.195312 C 180.183594 117.226562 179.050781 113.277344 180.425781 110.050781 C 181.890625 106.613281 185.558594 104.550781 189.105469 105.367188 C 192.511719 106.148438 194.625 108.351562 195.375 111.792969 C 195.972656 114.53125 194.550781 117.664062 191.996094 119.453125 C 191.589844 119.738281 191.066406 120.226562 191.050781 120.640625 C 190.964844 123.070312 191.007812 125.503906 191.007812 128.117188 Z M 187.496094 199.402344 C 190.828125 199.402344 194.164062 199.476562 197.496094 199.382812 C 200.484375 199.296875 203.53125 199.34375 206.445312 198.78125 C 218.207031 196.527344 227.304688 185.34375 227.320312 173.394531 C 227.324219 169.261719 227.359375 165.128906 227.300781 161 C 227.277344 159.554688 227.121094 158.097656 226.84375 156.679688 C 224.71875 145.828125 214.597656 136 201.171875 135.757812 C 192.394531 135.601562 183.609375 135.675781 174.828125 135.75 C 168.414062 135.800781 162.574219 137.683594 157.59375 141.828125 C 152.320312 146.214844 148.792969 151.675781 148.164062 158.617188 C 147.804688 162.574219 147.859375 166.582031 147.894531 170.5625 C 147.914062 173.171875 147.988281 175.828125 148.460938 178.382812 C 150.648438 190.1875 161.863281 199.40625 173.832031 199.402344 C 178.386719 199.402344 182.941406 199.402344 187.496094 199.402344 Z M 187.496094 199.402344 "/></g><path style=" stroke:none;fill-rule:nonzero;fill:#303030;fill-opacity:1;" d="M 168.464844 175.765625 C 161.554688 175.769531 156.117188 170.230469 156.007812 163.296875 C 155.910156 157.175781 160.742188 150.828125 168.375 150.699219 C 175.203125 150.582031 180.832031 156.453125 180.832031 163.410156 C 180.832031 170.546875 174.824219 176 168.464844 175.765625 Z M 172.382812 163.480469 C 172.402344 161.175781 170.644531 159.398438 168.339844 159.390625 C 166.0625 159.386719 164.195312 161.21875 164.207031 163.445312 C 164.214844 165.558594 166.113281 167.484375 168.234375 167.535156 C 170.476562 167.589844 172.359375 165.746094 172.382812 163.480469 Z M 172.382812 163.480469 "/><path style=" stroke:none;fill-rule:nonzero;fill:#303030;fill-opacity:1;" d="M 206.742188 175.773438 C 200.636719 175.933594 194.445312 171.105469 194.457031 163.375 C 194.46875 156.128906 199.871094 150.800781 206.773438 150.734375 C 214.125 150.660156 219.496094 157.171875 219.203125 163.851562 C 218.921875 170.308594 213.390625 175.8125 206.742188 175.773438 Z M 206.894531 159.394531 C 204.628906 159.394531 202.820312 161.195312 202.808594 163.460938 C 202.796875 165.730469 204.613281 167.566406 206.859375 167.558594 C 209.097656 167.550781 210.984375 165.675781 210.976562 163.472656 C 210.96875 161.214844 209.152344 159.394531 206.894531 159.394531 Z M 206.894531 159.394531 "/><path style=" stroke:none;fill-rule:nonzero;fill:#303030;fill-opacity:1;" d="M 187.601562 192.882812 C 182.96875 192.882812 178.660156 190.738281 175.464844 186.839844 C 174.230469 185.335938 174.453125 183.113281 175.957031 181.882812 C 177.460938 180.648438 179.679688 180.867188 180.914062 182.371094 C 182.746094 184.609375 185.121094 185.839844 187.601562 185.839844 C 190.082031 185.839844 192.457031 184.609375 194.289062 182.371094 C 195.523438 180.867188 197.742188 180.648438 199.246094 181.882812 C 200.75 183.113281 200.96875 185.335938 199.738281 186.839844 C 196.542969 190.734375 192.230469 192.882812 187.601562 192.882812 Z M 187.601562 192.882812 "/><g style="fill:#303030;fill-opacity:1;"><g transform="translate(117.268291, 267.443786)"><path style="stroke:none" d="M 21.109375 -5.875 C 21.109375 -4.914062 20.96875 -4.046875 20.6875 -3.265625 C 20.40625 -2.492188 19.90625 -1.832031 19.1875 -1.28125 C 18.476562 -0.738281 17.492188 -0.3125 16.234375 0 C 14.984375 0.3125 13.394531 0.46875 11.46875 0.46875 C 9.539062 0.46875 7.941406 0.3125 6.671875 0 C 5.410156 -0.3125 4.421875 -0.738281 3.703125 -1.28125 C 2.992188 -1.832031 2.5 -2.492188 2.21875 -3.265625 C 1.9375 -4.046875 1.796875 -4.914062 1.796875 -5.875 L 1.796875 -16.46875 C 1.796875 -17.425781 1.9375 -18.289062 2.21875 -19.0625 C 2.5 -19.84375 2.992188 -20.507812 3.703125 -21.0625 C 4.421875 -21.625 5.410156 -22.0625 6.671875 -22.375 C 7.941406 -22.6875 9.539062 -22.84375 11.46875 -22.84375 C 13.394531 -22.84375 14.984375 -22.6875 16.234375 -22.375 C 17.492188 -22.0625 18.476562 -21.625 19.1875 -21.0625 C 19.90625 -20.507812 20.40625 -19.84375 20.6875 -19.0625 C 20.96875 -18.289062 21.109375 -17.425781 21.109375 -16.46875 Z M 8.859375 -7 C 8.859375 -6.582031 9.015625 -6.234375 9.328125 -5.953125 C 9.640625 -5.671875 10.351562 -5.53125 11.46875 -5.53125 C 12.582031 -5.53125 13.296875 -5.671875 13.609375 -5.953125 C 13.921875 -6.234375 14.078125 -6.582031 14.078125 -7 L 14.078125 -15.359375 C 14.078125 -15.742188 13.921875 -16.078125 13.609375 -16.359375 C 13.296875 -16.640625 12.582031 -16.78125 11.46875 -16.78125 C 10.351562 -16.78125 9.640625 -16.640625 9.328125 -16.359375 C 9.015625 -16.078125 8.859375 -15.742188 8.859375 -15.359375 Z M 8.859375 -7 "/></g></g><g style="fill:#303030;fill-opacity:1;"><g transform="translate(140.164244, 267.443786)"><path style="stroke:none" d="M 9.171875 -16.78125 L 9.171875 -12.796875 L 11.5 -12.796875 C 12.039062 -12.796875 12.398438 -12.9375 12.578125 -13.21875 C 12.765625 -13.5 12.859375 -13.847656 12.859375 -14.265625 L 12.859375 -15.328125 C 12.859375 -15.734375 12.765625 -16.078125 12.578125 -16.359375 C 12.398438 -16.640625 12.039062 -16.78125 11.5 -16.78125 Z M 8.046875 0 L 3.265625 0 C 2.867188 0 2.582031 -0.0859375 2.40625 -0.265625 C 2.226562 -0.441406 2.140625 -0.726562 2.140625 -1.125 L 2.140625 -21.25 C 2.140625 -21.644531 2.226562 -21.929688 2.40625 -22.109375 C 2.582031 -22.285156 2.867188 -22.375 3.265625 -22.375 L 13.609375 -22.375 C 15.929688 -22.375 17.53125 -21.890625 18.40625 -20.921875 C 19.289062 -19.960938 19.734375 -18.71875 19.734375 -17.1875 L 19.734375 -15.75 C 19.734375 -14.882812 19.601562 -14.144531 19.34375 -13.53125 C 19.082031 -12.925781 18.632812 -12.488281 18 -12.21875 C 19.113281 -12.09375 20.015625 -11.632812 20.703125 -10.84375 C 21.398438 -10.0625 21.75 -9.015625 21.75 -7.703125 L 21.75 -1.125 C 21.75 -0.726562 21.660156 -0.441406 21.484375 -0.265625 C 21.304688 -0.0859375 21.023438 0 20.640625 0 L 15.8125 0 C 15.425781 0 15.144531 -0.0859375 14.96875 -0.265625 C 14.789062 -0.441406 14.703125 -0.726562 14.703125 -1.125 L 14.703125 -5.875 C 14.703125 -6.332031 14.613281 -6.664062 14.4375 -6.875 C 14.257812 -7.09375 13.953125 -7.203125 13.515625 -7.203125 L 9.171875 -7.203125 L 9.171875 -1.125 C 9.171875 -0.726562 9.082031 -0.441406 8.90625 -0.265625 C 8.726562 -0.0859375 8.441406 0 8.046875 0 Z M 8.046875 0 "/></g></g><g style="fill:#303030;fill-opacity:1;"><g transform="translate(163.091221, 267.443786)"><path style="stroke:none" d="M 19.234375 0 L 9.453125 0 C 6.859375 0 4.929688 -0.515625 3.671875 -1.546875 C 2.421875 -2.585938 1.796875 -4.1875 1.796875 -6.34375 L 1.796875 -16.03125 C 1.796875 -18.1875 2.421875 -19.78125 3.671875 -20.8125 C 4.929688 -21.851562 6.859375 -22.375 9.453125 -22.375 L 17.21875 -22.375 C 17.613281 -22.375 17.898438 -22.285156 18.078125 -22.109375 C 18.253906 -21.929688 18.34375 -21.644531 18.34375 -21.25 L 18.34375 -17.5 C 18.34375 -17.101562 18.253906 -16.816406 18.078125 -16.640625 C 17.898438 -16.460938 17.613281 -16.375 17.21875 -16.375 L 10.75 -16.375 C 10.113281 -16.375 9.640625 -16.242188 9.328125 -15.984375 C 9.015625 -15.722656 8.859375 -15.335938 8.859375 -14.828125 L 8.859375 -7.390625 C 8.859375 -6.878906 8.976562 -6.5 9.21875 -6.25 C 9.457031 -6 9.8125 -5.875 10.28125 -5.875 L 13.296875 -5.875 L 13.296875 -10.71875 C 13.296875 -11.113281 13.382812 -11.398438 13.5625 -11.578125 C 13.738281 -11.753906 14.023438 -11.84375 14.421875 -11.84375 L 19.234375 -11.84375 C 19.628906 -11.84375 19.914062 -11.753906 20.09375 -11.578125 C 20.269531 -11.398438 20.359375 -11.113281 20.359375 -10.71875 L 20.359375 -1.125 C 20.359375 -0.726562 20.269531 -0.441406 20.09375 -0.265625 C 19.914062 -0.0859375 19.628906 0 19.234375 0 Z M 19.234375 0 "/></g></g><g style="fill:#303030;fill-opacity:1;"><g transform="translate(185.086249, 267.443786)"><path style="stroke:none" d=""/></g></g><g style="fill:#303030;fill-opacity:1;"><g transform="translate(192.076197, 267.443786)"><path style="stroke:none" d="M 15.203125 0 L 3.265625 0 C 2.867188 0 2.582031 -0.0859375 2.40625 -0.265625 C 2.226562 -0.441406 2.140625 -0.726562 2.140625 -1.125 L 2.140625 -21.25 C 2.140625 -21.644531 2.226562 -21.929688 2.40625 -22.109375 C 2.582031 -22.285156 2.867188 -22.375 3.265625 -22.375 L 13.171875 -22.375 C 15.203125 -22.375 16.703125 -21.984375 17.671875 -21.203125 C 18.648438 -20.429688 19.140625 -19.238281 19.140625 -17.625 L 19.140625 -16.125 C 19.140625 -15.257812 18.988281 -14.550781 18.6875 -14 C 18.394531 -13.445312 17.9375 -13.035156 17.3125 -12.765625 C 18.632812 -12.648438 19.613281 -12.195312 20.25 -11.40625 C 20.894531 -10.613281 21.21875 -9.460938 21.21875 -7.953125 L 21.21875 -5.09375 C 21.21875 -3.351562 20.726562 -2.066406 19.75 -1.234375 C 18.769531 -0.410156 17.253906 0 15.203125 0 Z M 9.140625 -17.09375 L 9.140625 -13.734375 L 11.78125 -13.734375 C 12.175781 -13.734375 12.46875 -13.835938 12.65625 -14.046875 C 12.851562 -14.253906 12.953125 -14.566406 12.953125 -14.984375 L 12.953125 -15.84375 C 12.953125 -16.257812 12.851562 -16.570312 12.65625 -16.78125 C 12.46875 -16.988281 12.175781 -17.09375 11.78125 -17.09375 Z M 9.140625 -8.953125 L 9.140625 -5.28125 L 13.171875 -5.28125 C 13.566406 -5.28125 13.863281 -5.382812 14.0625 -5.59375 C 14.257812 -5.800781 14.359375 -6.113281 14.359375 -6.53125 L 14.359375 -7.734375 C 14.359375 -8.148438 14.257812 -8.457031 14.0625 -8.65625 C 13.863281 -8.851562 13.566406 -8.953125 13.171875 -8.953125 Z M 9.140625 -8.953125 "/></g></g><g style="fill:#303030;fill-opacity:1;"><g transform="translate(214.599347, 267.443786)"><path style="stroke:none" d="M 21.109375 -5.875 C 21.109375 -4.914062 20.96875 -4.046875 20.6875 -3.265625 C 20.40625 -2.492188 19.90625 -1.832031 19.1875 -1.28125 C 18.476562 -0.738281 17.492188 -0.3125 16.234375 0 C 14.984375 0.3125 13.394531 0.46875 11.46875 0.46875 C 9.539062 0.46875 7.941406 0.3125 6.671875 0 C 5.410156 -0.3125 4.421875 -0.738281 3.703125 -1.28125 C 2.992188 -1.832031 2.5 -2.492188 2.21875 -3.265625 C 1.9375 -4.046875 1.796875 -4.914062 1.796875 -5.875 L 1.796875 -16.46875 C 1.796875 -17.425781 1.9375 -18.289062 2.21875 -19.0625 C 2.5 -19.84375 2.992188 -20.507812 3.703125 -21.0625 C 4.421875 -21.625 5.410156 -22.0625 6.671875 -22.375 C 7.941406 -22.6875 9.539062 -22.84375 11.46875 -22.84375 C 13.394531 -22.84375 14.984375 -22.6875 16.234375 -22.375 C 17.492188 -22.0625 18.476562 -21.625 19.1875 -21.0625 C 19.90625 -20.507812 20.40625 -19.84375 20.6875 -19.0625 C 20.96875 -18.289062 21.109375 -17.425781 21.109375 -16.46875 Z M 8.859375 -7 C 8.859375 -6.582031 9.015625 -6.234375 9.328125 -5.953125 C 9.640625 -5.671875 10.351562 -5.53125 11.46875 -5.53125 C 12.582031 -5.53125 13.296875 -5.671875 13.609375 -5.953125 C 13.921875 -6.234375 14.078125 -6.582031 14.078125 -7 L 14.078125 -15.359375 C 14.078125 -15.742188 13.921875 -16.078125 13.609375 -16.359375 C 13.296875 -16.640625 12.582031 -16.78125 11.46875 -16.78125 C 10.351562 -16.78125 9.640625 -16.640625 9.328125 -16.359375 C 9.015625 -16.078125 8.859375 -15.742188 8.859375 -15.359375 Z M 8.859375 -7 "/></g></g><g style="fill:#303030;fill-opacity:1;"><g transform="translate(237.339935, 267.443786)"><path style="stroke:none" d="M 12.71875 0 L 7.671875 0 C 7.273438 0 6.988281 -0.0859375 6.8125 -0.265625 C 6.644531 -0.441406 6.5625 -0.726562 6.5625 -1.125 L 6.5625 -16.375 L 1.984375 -16.375 C 1.597656 -16.375 1.316406 -16.460938 1.140625 -16.640625 C 0.960938 -16.816406 0.875 -17.101562 0.875 -17.5 L 0.875 -21.25 C 0.875 -21.644531 0.960938 -21.929688 1.140625 -22.109375 C 1.316406 -22.285156 1.597656 -22.375 1.984375 -22.375 L 18.390625 -22.375 C 18.785156 -22.375 19.070312 -22.285156 19.25 -22.109375 C 19.425781 -21.929688 19.515625 -21.644531 19.515625 -21.25 L 19.515625 -17.5 C 19.515625 -17.101562 19.425781 -16.816406 19.25 -16.640625 C 19.070312 -16.460938 18.785156 -16.375 18.390625 -16.375 L 13.828125 -16.375 L 13.828125 -1.125 C 13.828125 -0.726562 13.738281 -0.441406 13.5625 -0.265625 C 13.382812 -0.0859375 13.101562 0 12.71875 0 Z M 12.71875 0 "/></g></g><g style="fill:#303030;fill-opacity:1;"><g transform="translate(157.873133, 228.839253)"><path style="stroke:none" d="M 2.578125 -3.453125 L 2.578125 -1.296875 L 6.328125 -1.296875 L 6.328125 0 L 1.015625 0 L 1.015625 -7.859375 L 6.234375 -7.859375 L 6.234375 -6.546875 L 2.578125 -6.546875 L 2.578125 -4.71875 L 5.78125 -4.71875 L 5.78125 -3.453125 Z M 2.578125 -3.453125 "/></g></g><g style="fill:#303030;fill-opacity:1;"><g transform="translate(164.619803, 228.839253)"><path style="stroke:none" d="M 3.484375 0.109375 C 2.941406 0.109375 2.457031 0.0390625 2.03125 -0.09375 C 1.601562 -0.226562 1.25 -0.40625 0.96875 -0.625 C 0.6875 -0.84375 0.46875 -1.082031 0.3125 -1.34375 L 1.171875 -2.375 L 1.3125 -2.375 C 1.539062 -2.03125 1.835938 -1.753906 2.203125 -1.546875 C 2.566406 -1.335938 2.992188 -1.234375 3.484375 -1.234375 C 3.898438 -1.234375 4.210938 -1.316406 4.421875 -1.484375 C 4.628906 -1.660156 4.734375 -1.90625 4.734375 -2.21875 C 4.734375 -2.40625 4.695312 -2.5625 4.625 -2.6875 C 4.5625 -2.8125 4.453125 -2.914062 4.296875 -3 C 4.140625 -3.09375 3.925781 -3.171875 3.65625 -3.234375 L 2.640625 -3.46875 C 1.941406 -3.632812 1.414062 -3.898438 1.0625 -4.265625 C 0.71875 -4.640625 0.546875 -5.128906 0.546875 -5.734375 C 0.546875 -6.171875 0.65625 -6.554688 0.875 -6.890625 C 1.101562 -7.234375 1.429688 -7.5 1.859375 -7.6875 C 2.285156 -7.875 2.789062 -7.96875 3.375 -7.96875 C 3.976562 -7.96875 4.492188 -7.882812 4.921875 -7.71875 C 5.359375 -7.5625 5.726562 -7.320312 6.03125 -7 L 5.265625 -5.9375 L 5.125 -5.9375 C 4.90625 -6.175781 4.648438 -6.351562 4.359375 -6.46875 C 4.078125 -6.582031 3.75 -6.640625 3.375 -6.640625 C 2.945312 -6.640625 2.625 -6.5625 2.40625 -6.40625 C 2.1875 -6.257812 2.078125 -6.054688 2.078125 -5.796875 C 2.078125 -5.546875 2.15625 -5.347656 2.3125 -5.203125 C 2.46875 -5.054688 2.734375 -4.941406 3.109375 -4.859375 L 4.140625 -4.640625 C 4.910156 -4.484375 5.46875 -4.210938 5.8125 -3.828125 C 6.15625 -3.441406 6.328125 -2.9375 6.328125 -2.3125 C 6.328125 -1.820312 6.21875 -1.394531 6 -1.03125 C 5.789062 -0.664062 5.472656 -0.382812 5.046875 -0.1875 C 4.617188 0.0078125 4.097656 0.109375 3.484375 0.109375 Z M 3.484375 0.109375 "/></g></g><g style="fill:#303030;fill-opacity:1;"><g transform="translate(171.361105, 228.839253)"><path style="stroke:none" d="M 3.84375 -7.859375 C 5.125 -7.859375 6.097656 -7.523438 6.765625 -6.859375 C 7.429688 -6.203125 7.765625 -5.222656 7.765625 -3.921875 C 7.765625 -2.628906 7.429688 -1.648438 6.765625 -0.984375 C 6.097656 -0.328125 5.125 0 3.84375 0 L 1.015625 0 L 1.015625 -7.859375 Z M 3.75 -1.3125 C 4.5625 -1.3125 5.164062 -1.515625 5.5625 -1.921875 C 5.96875 -2.335938 6.171875 -3.003906 6.171875 -3.921875 C 6.171875 -4.847656 5.96875 -5.515625 5.5625 -5.921875 C 5.164062 -6.335938 4.5625 -6.546875 3.75 -6.546875 L 2.578125 -6.546875 L 2.578125 -1.3125 Z M 3.75 -1.3125 "/></g></g><g style="fill:#303030;fill-opacity:1;"><g transform="translate(179.562261, 228.839253)"><path style="stroke:none" d="M 6.296875 -7.859375 L 6.296875 -6.546875 L 4.03125 -6.546875 L 4.03125 0 L 2.484375 0 L 2.484375 -6.546875 L 0.21875 -6.546875 L 0.21875 -7.859375 Z M 6.296875 -7.859375 "/></g></g><g style="fill:#303030;fill-opacity:1;"><g transform="translate(185.079571, 228.839253)"><path style="stroke:none" d="M 1.515625 0.046875 C 1.328125 0.046875 1.160156 0.0078125 1.015625 -0.0625 C 0.867188 -0.144531 0.753906 -0.253906 0.671875 -0.390625 C 0.597656 -0.523438 0.5625 -0.675781 0.5625 -0.84375 C 0.5625 -1.019531 0.597656 -1.175781 0.671875 -1.3125 C 0.753906 -1.445312 0.867188 -1.550781 1.015625 -1.625 C 1.160156 -1.707031 1.328125 -1.75 1.515625 -1.75 C 1.710938 -1.75 1.878906 -1.707031 2.015625 -1.625 C 2.160156 -1.550781 2.269531 -1.445312 2.34375 -1.3125 C 2.425781 -1.175781 2.46875 -1.023438 2.46875 -0.859375 C 2.46875 -0.597656 2.378906 -0.378906 2.203125 -0.203125 C 2.035156 -0.0351562 1.804688 0.046875 1.515625 0.046875 Z M 1.515625 0.046875 "/></g></g><g style="fill:#303030;fill-opacity:1;"><g transform="translate(188.112084, 228.839253)"><path style="stroke:none" d=""/></g></g><g style="fill:#303030;fill-opacity:1;"><g transform="translate(190.704479, 228.839253)"><path style="stroke:none" d="M 0.375 -0.625 C 0.375 -1.050781 0.421875 -1.414062 0.515625 -1.71875 C 0.617188 -2.019531 0.773438 -2.289062 0.984375 -2.53125 C 1.203125 -2.78125 1.507812 -3.046875 1.90625 -3.328125 L 2.953125 -4.078125 C 3.234375 -4.285156 3.453125 -4.460938 3.609375 -4.609375 C 3.773438 -4.765625 3.894531 -4.921875 3.96875 -5.078125 C 4.050781 -5.242188 4.09375 -5.4375 4.09375 -5.65625 C 4.09375 -5.96875 3.992188 -6.210938 3.796875 -6.390625 C 3.609375 -6.566406 3.320312 -6.65625 2.9375 -6.65625 C 2.5625 -6.65625 2.226562 -6.566406 1.9375 -6.390625 C 1.65625 -6.210938 1.414062 -5.96875 1.21875 -5.65625 L 1.125 -5.625 L 0.265625 -6.578125 C 0.546875 -6.992188 0.910156 -7.328125 1.359375 -7.578125 C 1.804688 -7.835938 2.351562 -7.96875 3 -7.96875 C 3.582031 -7.96875 4.070312 -7.867188 4.46875 -7.671875 C 4.863281 -7.484375 5.15625 -7.21875 5.34375 -6.875 C 5.539062 -6.539062 5.640625 -6.160156 5.640625 -5.734375 C 5.640625 -5.359375 5.5625 -5.015625 5.40625 -4.703125 C 5.25 -4.398438 5.03125 -4.117188 4.75 -3.859375 C 4.476562 -3.597656 4.128906 -3.316406 3.703125 -3.015625 L 2.765625 -2.359375 C 2.492188 -2.160156 2.300781 -1.984375 2.1875 -1.828125 C 2.070312 -1.671875 2.015625 -1.492188 2.015625 -1.296875 L 5.5625 -1.296875 L 5.5625 0 L 0.375 0 Z M 0.375 -0.625 "/></g></g><g style="fill:#303030;fill-opacity:1;"><g transform="translate(196.828544, 228.839253)"><path style="stroke:none" d="M 3.828125 0.109375 C 3.191406 0.109375 2.632812 -0.03125 2.15625 -0.3125 C 1.6875 -0.59375 1.316406 -1.035156 1.046875 -1.640625 C 0.785156 -2.242188 0.65625 -3.003906 0.65625 -3.921875 C 0.65625 -4.847656 0.785156 -5.609375 1.046875 -6.203125 C 1.316406 -6.804688 1.6875 -7.25 2.15625 -7.53125 C 2.632812 -7.820312 3.191406 -7.96875 3.828125 -7.96875 C 4.472656 -7.96875 5.03125 -7.820312 5.5 -7.53125 C 5.976562 -7.25 6.347656 -6.804688 6.609375 -6.203125 C 6.878906 -5.609375 7.015625 -4.847656 7.015625 -3.921875 C 7.015625 -3.003906 6.878906 -2.242188 6.609375 -1.640625 C 6.347656 -1.035156 5.976562 -0.59375 5.5 -0.3125 C 5.03125 -0.03125 4.472656 0.109375 3.828125 0.109375 Z M 3.828125 -1.203125 C 4.179688 -1.203125 4.476562 -1.285156 4.71875 -1.453125 C 4.957031 -1.628906 5.140625 -1.914062 5.265625 -2.3125 C 5.390625 -2.71875 5.453125 -3.253906 5.453125 -3.921875 C 5.453125 -4.597656 5.390625 -5.132812 5.265625 -5.53125 C 5.140625 -5.9375 4.957031 -6.222656 4.71875 -6.390625 C 4.476562 -6.566406 4.179688 -6.65625 3.828125 -6.65625 C 3.484375 -6.65625 3.191406 -6.566406 2.953125 -6.390625 C 2.710938 -6.222656 2.53125 -5.9375 2.40625 -5.53125 C 2.28125 -5.132812 2.21875 -4.597656 2.21875 -3.921875 C 2.21875 -3.253906 2.28125 -2.71875 2.40625 -2.3125 C 2.53125 -1.914062 2.710938 -1.628906 2.953125 -1.453125 C 3.191406 -1.285156 3.484375 -1.203125 3.828125 -1.203125 Z M 3.828125 -1.203125 "/></g></g><g style="fill:#303030;fill-opacity:1;"><g transform="translate(204.385639, 228.839253)"><path style="stroke:none" d="M 0.375 -0.625 C 0.375 -1.050781 0.421875 -1.414062 0.515625 -1.71875 C 0.617188 -2.019531 0.773438 -2.289062 0.984375 -2.53125 C 1.203125 -2.78125 1.507812 -3.046875 1.90625 -3.328125 L 2.953125 -4.078125 C 3.234375 -4.285156 3.453125 -4.460938 3.609375 -4.609375 C 3.773438 -4.765625 3.894531 -4.921875 3.96875 -5.078125 C 4.050781 -5.242188 4.09375 -5.4375 4.09375 -5.65625 C 4.09375 -5.96875 3.992188 -6.210938 3.796875 -6.390625 C 3.609375 -6.566406 3.320312 -6.65625 2.9375 -6.65625 C 2.5625 -6.65625 2.226562 -6.566406 1.9375 -6.390625 C 1.65625 -6.210938 1.414062 -5.96875 1.21875 -5.65625 L 1.125 -5.625 L 0.265625 -6.578125 C 0.546875 -6.992188 0.910156 -7.328125 1.359375 -7.578125 C 1.804688 -7.835938 2.351562 -7.96875 3 -7.96875 C 3.582031 -7.96875 4.070312 -7.867188 4.46875 -7.671875 C 4.863281 -7.484375 5.15625 -7.21875 5.34375 -6.875 C 5.539062 -6.539062 5.640625 -6.160156 5.640625 -5.734375 C 5.640625 -5.359375 5.5625 -5.015625 5.40625 -4.703125 C 5.25 -4.398438 5.03125 -4.117188 4.75 -3.859375 C 4.476562 -3.597656 4.128906 -3.316406 3.703125 -3.015625 L 2.765625 -2.359375 C 2.492188 -2.160156 2.300781 -1.984375 2.1875 -1.828125 C 2.070312 -1.671875 2.015625 -1.492188 2.015625 -1.296875 L 5.5625 -1.296875 L 5.5625 0 L 0.375 0 Z M 0.375 -0.625 "/></g></g><g style="fill:#303030;fill-opacity:1;"><g transform="translate(210.509704, 228.839253)"><path style="stroke:none" d="M 3.265625 0.109375 C 2.484375 0.109375 1.863281 -0.0507812 1.40625 -0.375 C 0.945312 -0.707031 0.644531 -1.171875 0.5 -1.765625 L 1.6875 -2.28125 L 1.8125 -2.265625 C 1.925781 -1.910156 2.09375 -1.644531 2.3125 -1.46875 C 2.539062 -1.300781 2.851562 -1.21875 3.25 -1.21875 C 3.664062 -1.21875 3.984375 -1.332031 4.203125 -1.5625 C 4.421875 -1.789062 4.53125 -2.140625 4.53125 -2.609375 C 4.53125 -3.066406 4.421875 -3.410156 4.203125 -3.640625 C 3.984375 -3.878906 3.679688 -4 3.296875 -4 C 3.015625 -4 2.773438 -3.9375 2.578125 -3.8125 C 2.378906 -3.6875 2.210938 -3.5 2.078125 -3.25 L 0.796875 -3.34375 L 0.953125 -7.859375 L 5.625 -7.859375 L 5.625 -6.546875 L 2.265625 -6.546875 L 2.1875 -4.546875 L 2.296875 -4.515625 C 2.484375 -4.753906 2.703125 -4.9375 2.953125 -5.0625 C 3.203125 -5.1875 3.507812 -5.25 3.875 -5.25 C 4.320312 -5.25 4.710938 -5.148438 5.046875 -4.953125 C 5.378906 -4.753906 5.632812 -4.457031 5.8125 -4.0625 C 6 -3.675781 6.09375 -3.195312 6.09375 -2.625 C 6.09375 -2.050781 5.984375 -1.554688 5.765625 -1.140625 C 5.546875 -0.734375 5.222656 -0.421875 4.796875 -0.203125 C 4.378906 0.00390625 3.867188 0.109375 3.265625 0.109375 Z M 3.265625 0.109375 "/></g></g><g style="fill:#303030;fill-opacity:1;"><g transform="translate(148.780145, 284.336348)"><path style="stroke:none" d="M 0.921875 0 L 0.921875 -7.140625 L 3.796875 -7.140625 C 4.535156 -7.140625 5.09375 -6.96875 5.46875 -6.625 C 5.84375 -6.289062 6.03125 -5.820312 6.03125 -5.21875 C 6.03125 -4.789062 5.921875 -4.4375 5.703125 -4.15625 C 5.484375 -3.875 5.15625 -3.660156 4.71875 -3.515625 L 4.71875 -3.421875 C 4.9375 -3.316406 5.113281 -3.171875 5.25 -2.984375 C 5.394531 -2.796875 5.53125 -2.507812 5.65625 -2.125 L 6.375 0 L 4.921875 0 L 4.21875 -2.140625 C 4.144531 -2.347656 4.0625 -2.507812 3.96875 -2.625 C 3.882812 -2.75 3.769531 -2.835938 3.625 -2.890625 C 3.488281 -2.941406 3.3125 -2.96875 3.09375 -2.96875 L 2.34375 -2.96875 L 2.34375 0 Z M 3.625 -4.09375 C 4.3125 -4.09375 4.65625 -4.410156 4.65625 -5.046875 C 4.65625 -5.691406 4.3125 -6.015625 3.625 -6.015625 L 2.34375 -6.015625 L 2.34375 -4.09375 Z M 3.625 -4.09375 "/></g></g><g style="fill:#303030;fill-opacity:1;"><g transform="translate(159.692327, 284.336348)"><path style="stroke:none" d="M 3.890625 0.109375 C 3.234375 0.109375 2.65625 -0.0234375 2.15625 -0.296875 C 1.65625 -0.566406 1.265625 -0.972656 0.984375 -1.515625 C 0.703125 -2.066406 0.5625 -2.75 0.5625 -3.5625 C 0.5625 -4.382812 0.703125 -5.066406 0.984375 -5.609375 C 1.265625 -6.160156 1.65625 -6.566406 2.15625 -6.828125 C 2.65625 -7.097656 3.234375 -7.234375 3.890625 -7.234375 C 4.546875 -7.234375 5.125 -7.101562 5.625 -6.84375 C 6.125 -6.582031 6.515625 -6.175781 6.796875 -5.625 C 7.078125 -5.070312 7.21875 -4.382812 7.21875 -3.5625 C 7.21875 -2.75 7.078125 -2.066406 6.796875 -1.515625 C 6.515625 -0.960938 6.125 -0.550781 5.625 -0.28125 C 5.125 -0.0195312 4.546875 0.109375 3.890625 0.109375 Z M 3.890625 -1.125 C 4.492188 -1.125 4.953125 -1.316406 5.265625 -1.703125 C 5.585938 -2.097656 5.75 -2.71875 5.75 -3.5625 C 5.75 -4.414062 5.585938 -5.035156 5.265625 -5.421875 C 4.953125 -5.816406 4.492188 -6.015625 3.890625 -6.015625 C 3.285156 -6.015625 2.820312 -5.816406 2.5 -5.421875 C 2.175781 -5.035156 2.015625 -4.414062 2.015625 -3.5625 C 2.015625 -2.71875 2.175781 -2.097656 2.5 -1.703125 C 2.820312 -1.316406 3.285156 -1.125 3.890625 -1.125 Z M 3.890625 -1.125 "/></g></g><g style="fill:#303030;fill-opacity:1;"><g transform="translate(171.707592, 284.336348)"><path style="stroke:none" d="M 0.921875 0 L 0.921875 -7.140625 L 3.796875 -7.140625 C 4.535156 -7.140625 5.09375 -6.96875 5.46875 -6.625 C 5.84375 -6.289062 6.03125 -5.820312 6.03125 -5.21875 C 6.03125 -4.789062 5.921875 -4.4375 5.703125 -4.15625 C 5.484375 -3.875 5.15625 -3.660156 4.71875 -3.515625 L 4.71875 -3.421875 C 4.9375 -3.316406 5.113281 -3.171875 5.25 -2.984375 C 5.394531 -2.796875 5.53125 -2.507812 5.65625 -2.125 L 6.375 0 L 4.921875 0 L 4.21875 -2.140625 C 4.144531 -2.347656 4.0625 -2.507812 3.96875 -2.625 C 3.882812 -2.75 3.769531 -2.835938 3.625 -2.890625 C 3.488281 -2.941406 3.3125 -2.96875 3.09375 -2.96875 L 2.34375 -2.96875 L 2.34375 0 Z M 3.625 -4.09375 C 4.3125 -4.09375 4.65625 -4.410156 4.65625 -5.046875 C 4.65625 -5.691406 4.3125 -6.015625 3.625 -6.015625 L 2.34375 -6.015625 L 2.34375 -4.09375 Z M 3.625 -4.09375 "/></g></g><g style="fill:#303030;fill-opacity:1;"><g transform="translate(182.395217, 284.336348)"><path style="stroke:none" d="M 3.90625 0 L 2.5 0 L 2.5 -2.796875 L 0.03125 -7.140625 L 1.546875 -7.140625 L 3.171875 -4.328125 L 3.296875 -4.328125 L 4.890625 -7.140625 L 6.375 -7.140625 L 3.90625 -2.796875 Z M 3.90625 0 "/></g></g><g style="fill:#303030;fill-opacity:1;"><g transform="translate(193.04383, 284.336348)"><path style="stroke:none" d=""/></g></g><g style="fill:#303030;fill-opacity:1;"><g transform="translate(199.641291, 284.336348)"><path style="stroke:none" d="M 2.34375 0 L 0.921875 0 L 0.921875 -7.140625 L 2.34375 -7.140625 Z M 2.34375 0 "/></g></g><g style="fill:#303030;fill-opacity:1;"><g transform="translate(207.151476, 284.336348)"><path style="stroke:none" d="M 2.296875 0 L 0.921875 0 L 0.921875 -7.140625 L 2.546875 -7.140625 L 5.40625 -2.546875 L 5.53125 -2.5625 L 5.53125 -7.140625 L 6.890625 -7.140625 L 6.890625 0 L 5.453125 0 L 2.421875 -4.90625 L 2.296875 -4.890625 Z M 2.296875 0 "/></g></g><g style="fill:#303030;fill-opacity:1;"><g transform="translate(219.21555, 284.336348)"><path style="stroke:none" d="M 3.90625 0.109375 C 3.25 0.109375 2.664062 -0.0234375 2.15625 -0.296875 C 1.65625 -0.578125 1.265625 -0.988281 0.984375 -1.53125 C 0.703125 -2.082031 0.5625 -2.757812 0.5625 -3.5625 C 0.5625 -4.375 0.703125 -5.050781 0.984375 -5.59375 C 1.265625 -6.144531 1.65625 -6.554688 2.15625 -6.828125 C 2.664062 -7.097656 3.25 -7.234375 3.90625 -7.234375 C 4.59375 -7.234375 5.175781 -7.097656 5.65625 -6.828125 C 6.132812 -6.566406 6.476562 -6.160156 6.6875 -5.609375 L 5.65625 -4.984375 L 5.53125 -4.984375 C 5.375 -5.359375 5.164062 -5.625 4.90625 -5.78125 C 4.644531 -5.945312 4.3125 -6.03125 3.90625 -6.03125 C 3.3125 -6.03125 2.847656 -5.832031 2.515625 -5.4375 C 2.179688 -5.039062 2.015625 -4.414062 2.015625 -3.5625 C 2.015625 -2.71875 2.179688 -2.097656 2.515625 -1.703125 C 2.847656 -1.316406 3.3125 -1.125 3.90625 -1.125 C 4.832031 -1.125 5.398438 -1.570312 5.609375 -2.46875 L 5.734375 -2.46875 L 6.765625 -1.921875 C 6.566406 -1.242188 6.234375 -0.734375 5.765625 -0.390625 C 5.296875 -0.0546875 4.675781 0.109375 3.90625 0.109375 Z M 3.90625 0.109375 "/></g></g><g style="fill:#303030;fill-opacity:1;"><g transform="translate(124.791866, 297.836347)"><path style="stroke:none" d="M 5.71875 -7.140625 L 5.71875 -5.953125 L 3.65625 -5.953125 L 3.65625 0 L 2.25 0 L 2.25 -5.953125 L 0.203125 -5.953125 L 0.203125 -7.140625 Z M 5.71875 -7.140625 "/></g></g><g style="fill:#303030;fill-opacity:1;"><g transform="translate(134.947501, 297.836347)"><path style="stroke:none" d="M 2.34375 -3.140625 L 2.34375 -1.1875 L 5.75 -1.1875 L 5.75 0 L 0.921875 0 L 0.921875 -7.140625 L 5.671875 -7.140625 L 5.671875 -5.953125 L 2.34375 -5.953125 L 2.34375 -4.28125 L 5.25 -4.28125 L 5.25 -3.140625 Z M 2.34375 -3.140625 "/></g></g><g style="fill:#303030;fill-opacity:1;"><g transform="translate(145.220266, 297.836347)"><path style="stroke:none" d="M 3.90625 0.109375 C 3.25 0.109375 2.664062 -0.0234375 2.15625 -0.296875 C 1.65625 -0.578125 1.265625 -0.988281 0.984375 -1.53125 C 0.703125 -2.082031 0.5625 -2.757812 0.5625 -3.5625 C 0.5625 -4.375 0.703125 -5.050781 0.984375 -5.59375 C 1.265625 -6.144531 1.65625 -6.554688 2.15625 -6.828125 C 2.664062 -7.097656 3.25 -7.234375 3.90625 -7.234375 C 4.59375 -7.234375 5.175781 -7.097656 5.65625 -6.828125 C 6.132812 -6.566406 6.476562 -6.160156 6.6875 -5.609375 L 5.65625 -4.984375 L 5.53125 -4.984375 C 5.375 -5.359375 5.164062 -5.625 4.90625 -5.78125 C 4.644531 -5.945312 4.3125 -6.03125 3.90625 -6.03125 C 3.3125 -6.03125 2.847656 -5.832031 2.515625 -5.4375 C 2.179688 -5.039062 2.015625 -4.414062 2.015625 -3.5625 C 2.015625 -2.71875 2.179688 -2.097656 2.515625 -1.703125 C 2.847656 -1.316406 3.3125 -1.125 3.90625 -1.125 C 4.832031 -1.125 5.398438 -1.570312 5.609375 -2.46875 L 5.734375 -2.46875 L 6.765625 -1.921875 C 6.566406 -1.242188 6.234375 -0.734375 5.765625 -0.390625 C 5.296875 -0.0546875 4.675781 0.109375 3.90625 0.109375 Z M 3.90625 0.109375 "/></g></g><g style="fill:#303030;fill-opacity:1;"><g transform="translate(156.459462, 297.836347)"><path style="stroke:none" d="M 5.53125 -4.453125 L 5.53125 -7.140625 L 6.9375 -7.140625 L 6.9375 0 L 5.53125 0 L 5.53125 -3.25 L 2.34375 -3.25 L 2.34375 0 L 0.921875 0 L 0.921875 -7.140625 L 2.34375 -7.140625 L 2.34375 -4.453125 Z M 5.53125 -4.453125 "/></g></g><g style="fill:#303030;fill-opacity:1;"><g transform="translate(168.572346, 297.836347)"><path style="stroke:none" d="M 2.296875 0 L 0.921875 0 L 0.921875 -7.140625 L 2.546875 -7.140625 L 5.40625 -2.546875 L 5.53125 -2.5625 L 5.53125 -7.140625 L 6.890625 -7.140625 L 6.890625 0 L 5.453125 0 L 2.421875 -4.90625 L 2.296875 -4.890625 Z M 2.296875 0 "/></g></g><g style="fill:#303030;fill-opacity:1;"><g transform="translate(180.636421, 297.836347)"><path style="stroke:none" d="M 3.890625 0.109375 C 3.234375 0.109375 2.65625 -0.0234375 2.15625 -0.296875 C 1.65625 -0.566406 1.265625 -0.972656 0.984375 -1.515625 C 0.703125 -2.066406 0.5625 -2.75 0.5625 -3.5625 C 0.5625 -4.382812 0.703125 -5.066406 0.984375 -5.609375 C 1.265625 -6.160156 1.65625 -6.566406 2.15625 -6.828125 C 2.65625 -7.097656 3.234375 -7.234375 3.890625 -7.234375 C 4.546875 -7.234375 5.125 -7.101562 5.625 -6.84375 C 6.125 -6.582031 6.515625 -6.175781 6.796875 -5.625 C 7.078125 -5.070312 7.21875 -4.382812 7.21875 -3.5625 C 7.21875 -2.75 7.078125 -2.066406 6.796875 -1.515625 C 6.515625 -0.960938 6.125 -0.550781 5.625 -0.28125 C 5.125 -0.0195312 4.546875 0.109375 3.890625 0.109375 Z M 3.890625 -1.125 C 4.492188 -1.125 4.953125 -1.316406 5.265625 -1.703125 C 5.585938 -2.097656 5.75 -2.71875 5.75 -3.5625 C 5.75 -4.414062 5.585938 -5.035156 5.265625 -5.421875 C 4.953125 -5.816406 4.492188 -6.015625 3.890625 -6.015625 C 3.285156 -6.015625 2.820312 -5.816406 2.5 -5.421875 C 2.175781 -5.035156 2.015625 -4.414062 2.015625 -3.5625 C 2.015625 -2.71875 2.175781 -2.097656 2.5 -1.703125 C 2.820312 -1.316406 3.285156 -1.125 3.890625 -1.125 Z M 3.890625 -1.125 "/></g></g><g style="fill:#303030;fill-opacity:1;"><g transform="translate(192.651686, 297.836347)"><path style="stroke:none" d="M 2.34375 -7.140625 L 2.34375 -1.1875 L 5.546875 -1.1875 L 5.546875 0 L 0.921875 0 L 0.921875 -7.140625 Z M 2.34375 -7.140625 "/></g></g><g style="fill:#303030;fill-opacity:1;"><g transform="translate(202.480272, 297.836347)"><path style="stroke:none" d="M 3.890625 0.109375 C 3.234375 0.109375 2.65625 -0.0234375 2.15625 -0.296875 C 1.65625 -0.566406 1.265625 -0.972656 0.984375 -1.515625 C 0.703125 -2.066406 0.5625 -2.75 0.5625 -3.5625 C 0.5625 -4.382812 0.703125 -5.066406 0.984375 -5.609375 C 1.265625 -6.160156 1.65625 -6.566406 2.15625 -6.828125 C 2.65625 -7.097656 3.234375 -7.234375 3.890625 -7.234375 C 4.546875 -7.234375 5.125 -7.101562 5.625 -6.84375 C 6.125 -6.582031 6.515625 -6.175781 6.796875 -5.625 C 7.078125 -5.070312 7.21875 -4.382812 7.21875 -3.5625 C 7.21875 -2.75 7.078125 -2.066406 6.796875 -1.515625 C 6.515625 -0.960938 6.125 -0.550781 5.625 -0.28125 C 5.125 -0.0195312 4.546875 0.109375 3.890625 0.109375 Z M 3.890625 -1.125 C 4.492188 -1.125 4.953125 -1.316406 5.265625 -1.703125 C 5.585938 -2.097656 5.75 -2.71875 5.75 -3.5625 C 5.75 -4.414062 5.585938 -5.035156 5.265625 -5.421875 C 4.953125 -5.816406 4.492188 -6.015625 3.890625 -6.015625 C 3.285156 -6.015625 2.820312 -5.816406 2.5 -5.421875 C 2.175781 -5.035156 2.015625 -4.414062 2.015625 -3.5625 C 2.015625 -2.71875 2.175781 -2.097656 2.5 -1.703125 C 2.820312 -1.316406 3.285156 -1.125 3.890625 -1.125 Z M 3.890625 -1.125 "/></g></g><g style="fill:#303030;fill-opacity:1;"><g transform="translate(214.495538, 297.836347)"><path style="stroke:none" d="M 3.46875 0.109375 C 2.875 0.109375 2.359375 -0.0234375 1.921875 -0.296875 C 1.484375 -0.578125 1.144531 -0.988281 0.90625 -1.53125 C 0.675781 -2.082031 0.5625 -2.757812 0.5625 -3.5625 C 0.5625 -4.382812 0.703125 -5.066406 0.984375 -5.609375 C 1.265625 -6.160156 1.65625 -6.566406 2.15625 -6.828125 C 2.664062 -7.097656 3.253906 -7.234375 3.921875 -7.234375 C 4.597656 -7.234375 5.175781 -7.109375 5.65625 -6.859375 C 6.144531 -6.609375 6.488281 -6.234375 6.6875 -5.734375 L 5.65625 -5.109375 L 5.53125 -5.109375 C 5.382812 -5.429688 5.175781 -5.664062 4.90625 -5.8125 C 4.644531 -5.957031 4.316406 -6.03125 3.921875 -6.03125 C 3.304688 -6.03125 2.832031 -5.832031 2.5 -5.4375 C 2.175781 -5.050781 2.015625 -4.425781 2.015625 -3.5625 C 2.015625 -2.707031 2.164062 -2.082031 2.46875 -1.6875 C 2.78125 -1.300781 3.234375 -1.109375 3.828125 -1.109375 C 4.335938 -1.109375 4.710938 -1.222656 4.953125 -1.453125 C 5.203125 -1.679688 5.328125 -2.023438 5.328125 -2.484375 L 5.328125 -2.796875 L 3.640625 -2.796875 L 3.640625 -3.9375 L 6.734375 -3.9375 L 6.734375 0 L 5.375 0 L 5.375 -0.953125 L 5.28125 -0.96875 C 5.132812 -0.625 4.910156 -0.359375 4.609375 -0.171875 C 4.316406 0.015625 3.9375 0.109375 3.46875 0.109375 Z M 3.46875 0.109375 "/></g></g><g style="fill:#303030;fill-opacity:1;"><g transform="translate(226.178902, 297.836347)"><path style="stroke:none" d="M 2.34375 0 L 0.921875 0 L 0.921875 -7.140625 L 2.34375 -7.140625 Z M 2.34375 0 "/></g></g><g style="fill:#303030;fill-opacity:1;"><g transform="translate(233.689087, 297.836347)"><path style="stroke:none" d="M 2.34375 -3.140625 L 2.34375 -1.1875 L 5.75 -1.1875 L 5.75 0 L 0.921875 0 L 0.921875 -7.140625 L 5.671875 -7.140625 L 5.671875 -5.953125 L 2.34375 -5.953125 L 2.34375 -4.28125 L 5.25 -4.28125 L 5.25 -3.140625 Z M 2.34375 -3.140625 "/></g></g><g style="fill:#303030;fill-opacity:1;"><g transform="translate(244.064368, 297.836347)"><path style="stroke:none" d="M 3.171875 0.109375 C 2.671875 0.109375 2.226562 0.046875 1.84375 -0.078125 C 1.457031 -0.203125 1.132812 -0.363281 0.875 -0.5625 C 0.625 -0.757812 0.425781 -0.976562 0.28125 -1.21875 L 1.0625 -2.15625 L 1.1875 -2.15625 C 1.40625 -1.84375 1.675781 -1.59375 2 -1.40625 C 2.332031 -1.21875 2.722656 -1.125 3.171875 -1.125 C 3.546875 -1.125 3.828125 -1.203125 4.015625 -1.359375 C 4.210938 -1.515625 4.3125 -1.734375 4.3125 -2.015625 C 4.3125 -2.179688 4.28125 -2.320312 4.21875 -2.4375 C 4.15625 -2.550781 4.050781 -2.648438 3.90625 -2.734375 C 3.757812 -2.816406 3.566406 -2.882812 3.328125 -2.9375 L 2.40625 -3.15625 C 1.769531 -3.300781 1.289062 -3.539062 0.96875 -3.875 C 0.65625 -4.21875 0.5 -4.660156 0.5 -5.203125 C 0.5 -5.609375 0.597656 -5.960938 0.796875 -6.265625 C 1.003906 -6.578125 1.300781 -6.816406 1.6875 -6.984375 C 2.070312 -7.148438 2.535156 -7.234375 3.078125 -7.234375 C 3.617188 -7.234375 4.085938 -7.160156 4.484375 -7.015625 C 4.878906 -6.878906 5.210938 -6.660156 5.484375 -6.359375 L 4.78125 -5.40625 L 4.65625 -5.40625 C 4.457031 -5.613281 4.226562 -5.769531 3.96875 -5.875 C 3.707031 -5.976562 3.410156 -6.03125 3.078125 -6.03125 C 2.679688 -6.03125 2.382812 -5.960938 2.1875 -5.828125 C 1.988281 -5.691406 1.890625 -5.503906 1.890625 -5.265625 C 1.890625 -5.035156 1.957031 -4.851562 2.09375 -4.71875 C 2.238281 -4.59375 2.484375 -4.492188 2.828125 -4.421875 L 3.765625 -4.21875 C 4.460938 -4.070312 4.96875 -3.820312 5.28125 -3.46875 C 5.59375 -3.125 5.75 -2.671875 5.75 -2.109375 C 5.75 -1.660156 5.648438 -1.269531 5.453125 -0.9375 C 5.265625 -0.601562 4.976562 -0.34375 4.59375 -0.15625 C 4.207031 0.0195312 3.734375 0.109375 3.171875 0.109375 Z M 3.171875 0.109375 "/></g></g></g></svg>